HIERARCHY
ROOT Hips
{
	OFFSET 0.000000 0.000000 0.000000
	CHANNELS 6 Xposition Yposition Zposition Zrotation Yrotation Xrotation 
	JOINT LowerBack
	{
		OFFSET 0.000000 0.000000 0.000000
		CHANNELS 3 Zrotation Yrotation Xrotation
		JOINT Spine
		{
			OFFSET 0.028270 2.035590 -0.193380
			CHANNELS 3 Zrotation Yrotation Xrotation
			JOINT Spine1
			{
				OFFSET 0.056720 2.048850 -0.042750
				CHANNELS 3 Zrotation Yrotation Xrotation
				JOINT Neck
				{
					OFFSET 0.000000 0.000000 0.000000
					CHANNELS 3 Zrotation Yrotation Xrotation
					JOINT Neck1
					{
						OFFSET -0.054170 1.746240 0.172020
						CHANNELS 3 Zrotation Yrotation Xrotation
						JOINT Head
						{
							OFFSET 0.104070 1.761360 -0.123970
							CHANNELS 3 Zrotation Yrotation Xrotation
							End Site
							{
								OFFSET 0.000000 0.000000 0.000000
							}
						}
					}
				}
				JOINT LeftShoulder
				{
					OFFSET 0.000000 0.000000 0.000000
					CHANNELS 3 Zrotation Yrotation Xrotation
					JOINT LeftArm
					{
						OFFSET 3.362410 1.200890 -0.311210
						CHANNELS 3 Zrotation Yrotation Xrotation
						JOINT LeftForeArm
						{
							OFFSET 4.983000 -0.000000 -0.000000
							CHANNELS 3 Zrotation Yrotation Xrotation
							JOINT LeftHand
							{
								OFFSET 3.483560 -0.000000 -0.000000
								CHANNELS 3 Zrotation Yrotation Xrotation
								JOINT LeftFingerBase
								{
									OFFSET 0.000000 0.000000 0.000000
									CHANNELS 3 Zrotation Yrotation Xrotation
									JOINT LeftHandIndex1
									{
										OFFSET 0.715260 -0.000000 -0.000000
										CHANNELS 3 Zrotation Yrotation Xrotation
										End Site
										{
											OFFSET 0.000000 0.000000 0.000000
										}
									}
								}
								JOINT LThumb
								{
									OFFSET 0.000000 0.000000 0.000000
									CHANNELS 3 Zrotation Yrotation Xrotation
									End Site
									{
										OFFSET 0.000000 0.000000 0.000000
									}
								}
							}
						}
					}
				}
				JOINT RightShoulder
				{
					OFFSET 0.000000 0.000000 0.000000
					CHANNELS 3 Zrotation Yrotation Xrotation
					JOINT RightArm
					{
						OFFSET -3.136600 1.374050 -0.404650
						CHANNELS 3 Zrotation Yrotation Xrotation
						JOINT RightForeArm
						{
							OFFSET -5.241900 -0.000000 -0.000000
							CHANNELS 3 Zrotation Yrotation Xrotation
							JOINT RightHand
							{
								OFFSET -3.444170 -0.000000 -0.000000
								CHANNELS 3 Zrotation Yrotation Xrotation
								JOINT RightFingerBase
								{
									OFFSET 0.000000 0.000000 0.000000
									CHANNELS 3 Zrotation Yrotation Xrotation
									JOINT RightHandIndex1
									{
										OFFSET -0.622530 -0.000000 -0.000000
										CHANNELS 3 Zrotation Yrotation Xrotation
										End Site
										{
											OFFSET 0.000000 0.000000 0.000000
										}
									}
								}
								JOINT RThumb
								{
									OFFSET 0.000000 0.000000 0.000000
									CHANNELS 3 Zrotation Yrotation Xrotation
									End Site
									{
										OFFSET 0.000000 0.000000 0.000000
									}
								}
							}
						}
					}
				}
			}
		}
	}
}
}
MOTION
Frames: 17
Frame Time: 0.008333
1.560048 17.327167 0.841975 175.202151 -74.019377 -174.217369 0.861737 -6.716354 -11.696166 0.911013 -6.631300 -4.799518 -1.333844 -6.728617 1.187032 14.270480 -23.998582 -8.602510 -0.076613 0.018681 -0.181169 0.000000 0.000000 0.000000 20.327727 -2.601617 0.801144 -13.876769 -37.767561 -22.244542 0.278353 -18.306516 -0.004350 0.797861 -1.903833 -0.015794 -0.009149 0.407170 -0.000000 0.000000 0.000000 0.000000 0.000000 0.000000 0.000000 8.048870 -23.232719 -2.503955 28.379016 10.618275 -18.222032 -179.654948 71.383525 179.939974 -7.696152 6.860782 -0.503428 0.085408 -0.526690 -0.000000 0.000000 0.000000 0.000000 0.000000 0.000000 0.000000 
1.554759 17.326515 0.841148 175.010201 -73.552507 -173.924412 0.936569 -6.615393 -11.737718 0.900972 -6.548639 -4.795926 -1.418309 -6.647105 1.266438 14.257321 -24.053511 -8.617742 -0.089291 0.017866 -0.182964 0.000000 0.000000 0.000000 20.324422 -2.315848 0.763013 -14.276531 -36.838945 -20.581055 0.299918 -20.863682 0.000419 0.079228 -1.382862 -0.000528 0.006921 0.404439 -0.000000 0.000000 0.000000 0.000000 0.000000 0.000000 0.000000 8.035683 -23.183965 -2.469855 28.640517 10.237935 -18.381340 -179.671687 71.082973 179.940372 -7.666223 6.853126 -0.501114 0.086967 -0.527255 -0.000000 0.000000 0.000000 0.000000 0.000000 0.000000 0.000000 
1.550651 17.325407 0.839741 174.817016 -73.113967 -173.620548 1.014761 -6.507594 -11.773819 0.886490 -6.459945 -4.794498 -1.519871 -6.558539 1.335613 14.236164 -24.105873 -8.622599 -0.104411 0.016622 -0.181602 0.000000 0.000000 0.000000 20.244475 -2.110449 0.725492 -14.579579 -35.678973 -18.947074 0.327670 -23.731717 0.004257 -0.476535 -1.033746 0.006827 0.020712 0.406156 -0.000000 0.000000 0.000000 0.000000 0.000000 0.000000 0.000000 8.000290 -23.125277 -2.421411 28.939624 9.804881 -18.540621 -179.694059 70.752579 179.940925 -7.624694 6.848472 -0.498293 0.088934 -0.527920 -0.000000 0.000000 0.000000 0.000000 0.000000 0.000000 0.000000 
1.547710 17.323940 0.838037 174.622226 -72.710086 -173.302771 1.094173 -6.397774 -11.803301 0.869513 -6.369972 -4.793707 -1.631924 -6.468047 1.397745 14.210301 -24.160604 -8.622343 -0.120830 0.015145 -0.178627 0.000000 0.000000 0.000000 20.086559 -1.925702 0.682406 -14.785650 -34.425470 -17.499699 0.363036 -26.730203 0.006802 -0.827480 -0.865106 0.010265 0.031543 0.411900 0.000000 0.000000 0.000000 0.000000 0.000000 0.000000 0.000000 7.952334 -23.066738 -2.364743 29.261851 9.354917 -18.697877 -179.720542 70.419147 179.941585 -7.575254 6.850651 -0.495372 0.091117 -0.528655 -0.000000 0.000000 0.000000 0.000000 0.000000 0.000000 0.000000 
1.545932 17.322133 0.836397 174.428794 -72.344929 -172.979556 1.177103 -6.291253 -11.822599 0.851537 -6.283641 -4.793612 -1.751300 -6.380436 1.450463 14.172938 -24.207155 -8.612335 -0.139005 0.013312 -0.172797 0.000000 0.000000 0.000000 19.867356 -1.781192 0.634829 -14.945671 -33.048495 -16.305006 0.401688 -29.845150 0.008102 -0.994355 -0.821023 0.011889 0.039755 0.420385 0.000000 0.000000 0.000000 0.000000 0.000000 0.000000 0.000000 7.883595 -23.002329 -2.302940 29.610361 8.901450 -18.845665 -179.749899 70.095072 179.942314 -7.519840 6.860928 -0.492648 0.093374 -0.529495 -0.000000 0.000000 0.000000 0.000000 0.000000 0.000000 0.000000 
1.545053 17.320117 0.835035 174.240544 -72.017551 -172.649376 1.263751 -6.191138 -11.831951 0.834705 -6.204283 -4.792415 -1.872142 -6.299480 1.500053 14.127803 -24.251010 -8.600228 -0.157571 0.011386 -0.166299 0.000000 0.000000 0.000000 19.593528 -1.610726 0.578345 -15.089249 -31.662818 -15.395279 0.442157 -32.960358 0.008093 -0.982004 -0.866785 0.012298 0.045402 0.430725 0.000000 0.000000 0.000000 0.000000 0.000000 0.000000 0.000000 7.803152 -22.940698 -2.241967 29.971472 8.480867 -18.982720 -179.780408 69.801332 179.943053 -7.463190 6.881115 -0.490525 0.095563 -0.530422 -0.000000 0.000000 0.000000 0.000000 0.000000 0.000000 0.000000 
1.545144 17.317931 0.834193 174.059811 -71.725449 -172.317283 1.355940 -6.099845 -11.830531 0.820259 -6.134315 -4.789681 -1.991837 -6.227692 1.547800 14.073224 -24.288288 -8.586444 -0.176608 0.009377 -0.159291 0.000000 0.000000 0.000000 19.278431 -1.408597 0.514032 -15.257305 -30.266038 -14.760193 0.479861 -36.070838 0.007002 -0.832039 -0.946406 0.011399 0.049073 0.441804 0.000000 0.000000 0.000000 0.000000 0.000000 0.000000 0.000000 7.710851 -22.879798 -2.184630 30.342101 8.109114 -19.105353 -179.810998 69.548523 179.943766 -7.408856 6.911124 -0.489102 0.097628 -0.531429 -0.000000 0.000000 0.000000 0.000000 0.000000 0.000000 0.000000 
1.545992 17.315697 0.833972 173.891873 -71.464512 -171.986161 1.454718 -6.018169 -11.819261 0.808961 -6.074652 -4.785131 -2.108914 -6.166107 1.595513 14.009694 -24.317400 -8.572413 -0.196213 0.007305 -0.152184 0.000000 0.000000 0.000000 18.932361 -1.168475 0.443568 -15.477857 -28.859616 -14.372325 0.510494 -39.176270 0.005144 -0.591055 -1.015707 0.008893 0.051376 0.452701 0.000000 0.000000 0.000000 0.000000 0.000000 0.000000 0.000000 7.608797 -22.818640 -2.132769 30.717629 7.797520 -19.211543 -179.840936 69.341394 179.944419 -7.360918 6.950266 -0.488682 0.099591 -0.532502 -0.000000 0.000000 0.000000 0.000000 0.000000 0.000000 0.000000 
1.547653 17.313491 0.834451 173.738385 -71.229750 -171.658657 1.559652 -5.945677 -11.798334 0.800955 -6.024879 -4.778395 -2.222583 -6.114442 1.644414 13.939436 -24.337823 -8.559824 -0.216624 0.005186 -0.145483 0.000000 0.000000 0.000000 18.561817 -0.886953 0.369546 -15.761510 -27.446536 -14.194807 0.530551 -42.276449 0.002892 -0.308716 -1.048449 0.005484 0.052941 0.462756 0.000000 0.000000 0.000000 0.000000 0.000000 0.000000 0.000000 7.501844 -22.756132 -2.087268 31.092988 7.550855 -19.301545 -179.869825 69.183761 179.944987 -7.323512 6.997399 -0.489460 0.101512 -0.533589 -0.000000 0.000000 0.000000 0.000000 0.000000 0.000000 0.000000 
1.550110 17.311395 0.835584 173.600344 -71.011325 -171.336942 1.668414 -5.879534 -11.767022 0.795435 -5.982046 -4.768920 -2.333178 -6.069848 1.694936 13.865695 -24.349549 -8.549685 -0.238217 0.003008 -0.139494 0.000000 0.000000 0.000000 18.172225 -0.569033 0.295372 -16.107828 -26.023504 -14.184830 0.537393 -45.374284 0.000647 -0.033641 -1.031430 0.001874 0.054346 0.471471 0.000000 0.000000 0.000000 0.000000 0.000000 0.000000 0.000000 7.395255 -22.690167 -2.047745 31.463591 7.365939 -19.376409 -179.897658 69.072691 179.945457 -7.299738 7.050472 -0.491540 0.103491 -0.534635 -0.000000 0.000000 0.000000 0.000000 0.000000 0.000000 0.000000 
1.553304 17.309475 0.837294 173.482042 -70.811695 -171.021479 1.778328 -5.819366 -11.728169 0.791789 -5.945527 -4.757130 -2.441212 -6.031769 1.747585 13.792408 -24.353279 -8.543659 -0.261112 0.000790 -0.134704 0.000000 0.000000 0.000000 17.766333 -0.219953 0.224713 -16.505064 -24.597761 -14.297926 0.529928 -48.460282 -0.001222 0.192343 -0.967419 -0.001036 0.056054 0.478580 0.000000 0.000000 0.000000 0.000000 0.000000 0.000000 0.000000 7.294513 -22.620449 -2.013751 31.825523 7.233710 -19.438851 -179.924497 69.002725 179.945823 -7.292398 7.108141 -0.495019 0.105627 -0.535591 -0.000000 0.000000 0.000000 0.000000 0.000000 0.000000 0.000000 
1.557347 17.307785 0.839477 173.382357 -70.628059 -170.712403 1.885556 -5.762713 -11.682641 0.788833 -5.912493 -4.742999 -2.547304 -5.997428 1.802274 13.723475 -24.350568 -8.542851 -0.285272 -0.001449 -0.131466 0.000000 0.000000 0.000000 17.347025 0.153244 0.160835 -16.936197 -23.179730 -14.490566 0.508703 -51.517149 -0.002414 0.336681 -0.868522 -0.002642 0.058405 0.483976 0.000000 0.000000 0.000000 0.000000 0.000000 0.000000 0.000000 7.204570 -22.546384 -1.984269 32.176020 7.141267 -19.491825 -179.950540 68.966505 179.946086 -7.302810 7.168163 -0.499796 0.108003 -0.536399 -0.000000 0.000000 0.000000 0.000000 0.000000 0.000000 0.000000 
1.562121 17.306313 0.841984 173.302894 -70.457844 -170.408624 1.987005 -5.706915 -11.631467 0.785644 -5.880006 -4.726047 -2.651796 -5.963955 1.860898 13.662570 -24.343962 -8.549967 -0.309837 -0.003590 -0.130587 0.000000 0.000000 0.000000 16.914658 0.561681 0.105983 -17.379053 -21.812845 -14.722172 0.476133 -54.500113 -0.002747 0.379770 -0.758284 -0.002849 0.061596 0.487813 -0.000000 0.000000 0.000000 0.000000 0.000000 0.000000 0.000000 7.128667 -22.469194 -1.959238 32.514544 7.077965 -19.538502 -179.975649 68.956499 179.946251 -7.330972 7.229649 -0.505872 0.110624 -0.537049 -0.000000 0.000000 0.000000 0.000000 0.000000 0.000000 0.000000 
1.567765 17.305077 0.844601 173.239416 -70.301307 -170.108755 2.078452 -5.650021 -11.575989 0.780736 -5.845520 -4.707064 -2.755740 -5.928715 1.920894 13.610568 -24.333829 -8.562934 -0.334972 -0.005690 -0.131509 0.000000 0.000000 0.000000 16.477925 0.976378 0.062366 -17.824553 -20.475591 -14.960953 0.434619 -57.405204 -0.002133 0.312363 -0.652760 -0.001857 0.065680 0.490137 -0.000000 0.000000 0.000000 0.000000 0.000000 0.000000 0.000000 7.066752 -22.386990 -1.936408 32.842102 7.024659 -19.579971 179.999657 68.961697 179.946330 -7.375328 7.290411 -0.513144 0.113545 -0.537527 -0.000000 0.000000 0.000000 0.000000 0.000000 0.000000 0.000000 
1.574202 17.304026 0.847221 173.190398 -70.157492 -169.810278 2.157887 -5.590226 -11.517526 0.773567 -5.806947 -4.685884 -2.858834 -5.889624 1.983613 13.568250 -24.322507 -8.583392 -0.359540 -0.007624 -0.134728 0.000000 0.000000 0.000000 16.041027 1.407700 0.030025 -18.261462 -19.206946 -15.180120 0.388064 -60.186126 -0.000628 0.138513 -0.575810 0.000035 0.070614 0.491290 -0.000000 0.000000 0.000000 0.000000 0.000000 0.000000 0.000000 7.017989 -22.301550 -1.915891 33.160458 6.972939 -19.617375 179.975654 68.976722 179.946338 -7.433745 7.350122 -0.521314 0.116700 -0.537862 -0.000000 0.000000 0.000000 0.000000 0.000000 0.000000 0.000000 
1.581424 17.303137 0.849711 173.152673 -70.026491 -169.511280 2.223890 -5.526649 -11.457076 0.763736 -5.763091 -4.662826 -2.960707 -5.845431 2.048597 13.534235 -24.311110 -8.610784 -0.382767 -0.009339 -0.140104 0.000000 0.000000 0.000000 15.611708 1.850857 0.008327 -18.687640 -18.016562 -15.362739 0.339930 -62.817300 0.001617 -0.127342 -0.543029 0.002423 0.076239 0.491574 -0.000000 0.000000 0.000000 0.000000 0.000000 0.000000 0.000000 6.978569 -22.213584 -1.897196 33.472663 6.914595 -19.649890 179.952428 68.995474 179.946290 -7.502406 7.408426 -0.530183 0.120008 -0.538106 -0.000000 0.000000 0.000000 0.000000 0.000000 0.000000 0.000000 
1.589330 17.302372 0.851949 173.122040 -69.909023 -169.208257 2.275248 -5.459107 -11.395875 0.750906 -5.713482 -4.638546 -3.061091 -5.795587 2.114480 13.506305 -24.299803 -8.643428 -0.404413 -0.010846 -0.147143 0.000000 0.000000 0.000000 15.200563 2.292895 -0.004029 -19.111030 -16.892894 -15.499809 0.292880 -65.290265 0.004391 -0.464837 -0.564549 0.005608 0.082318 0.491259 -0.000000 0.000000 0.000000 0.000000 0.000000 0.000000 0.000000 6.944573 -22.122971 -1.879570 33.780576 6.844538 -19.675696 179.929950 69.011866 179.946198 -7.578357 7.465355 -0.539549 0.123423 -0.538332 -0.000000 0.000000 0.000000 0.000000 0.000000 0.000000 0.000000 
